<svg width="274" height="50" viewBox="0 0 274 50" fill="none" xmlns="http://www.w3.org/2000/svg">
<path d="M0.866455 15.6275C0.866455 13.2955 2.47856 11.2731 4.7519 10.7533L38.0558 3.13792C41.1863 2.42208 44.1703 4.8008 44.1703 8.01212V34.6084C44.1703 36.9404 42.5582 38.9627 40.2849 39.4826L6.981 47.098C3.85048 47.8138 0.866455 45.4351 0.866455 42.2238V15.6275Z" fill="white"/>
<path d="M1.61646 15.6982C1.61646 13.351 3.51925 11.4482 5.86646 11.4482H41.9344C44.2816 11.4482 46.1844 13.351 46.1844 15.6982V42.5526C46.1844 44.8998 44.2816 46.8026 41.9344 46.8026H5.86645C3.51924 46.8026 1.61646 44.8998 1.61646 42.5526V15.6982Z" fill="white" stroke="#5E50A2" stroke-width="1.5"/>
<path d="M28.5073 29.1249C28.5073 26.5806 30.5698 24.5181 33.1141 24.5181H46.9345V33.7317H33.1141C30.5698 33.7317 28.5073 31.6691 28.5073 29.1249V29.1249Z" fill="#5E50A2"/>
<circle cx="32.9212" cy="29.1249" r="2.26748" fill="white"/>
<circle cx="23.9005" cy="10.6976" r="9.54822" fill="white" stroke="#5E50A2" stroke-width="1.5"/>
<path d="M23.9003 6.7749V14.6208" stroke="#65C6A2" stroke-width="1.5" stroke-linecap="round"/>
<path d="M19.9774 10.6982L27.8232 10.6982" stroke="#65C6A2" stroke-width="1.5" stroke-linecap="round"/>
<path d="M72.4468 40.1611V13.9793H77.9823V24.7819H89.2195V13.9793H94.7422V40.1611H89.2195V29.3458H77.9823V40.1611H72.4468ZM105.883 40.5319C104.63 40.5319 103.514 40.3145 102.534 39.8799C101.554 39.4367 100.778 38.7847 100.207 37.9239C99.6447 37.0546 99.3634 35.9722 99.3634 34.6768C99.3634 33.5858 99.5637 32.6697 99.9643 31.9282C100.365 31.1867 100.91 30.5901 101.601 30.1384C102.291 29.6867 103.075 29.3458 103.953 29.1157C104.839 28.8856 105.768 28.7236 106.74 28.6299C107.882 28.5106 108.802 28.3998 109.501 28.2975C110.2 28.1867 110.707 28.0248 111.023 27.8117C111.338 27.5986 111.496 27.2833 111.496 26.8657V26.789C111.496 25.9793 111.24 25.3529 110.728 24.9097C110.226 24.4665 109.51 24.2449 108.581 24.2449C107.601 24.2449 106.821 24.4623 106.241 24.8969C105.662 25.3231 105.278 25.86 105.091 26.5077L100.054 26.0986C100.309 24.9055 100.812 23.8742 101.562 23.0049C102.312 22.127 103.28 21.4537 104.464 20.985C105.657 20.5077 107.038 20.2691 108.606 20.2691C109.697 20.2691 110.741 20.3969 111.738 20.6526C112.744 20.9083 113.635 21.3046 114.41 21.8415C115.194 22.3785 115.812 23.0688 116.264 23.9126C116.716 24.7478 116.942 25.7492 116.942 26.9168V40.1611H111.777V37.4381H111.623C111.308 38.0518 110.886 38.593 110.358 39.0617C109.829 39.5219 109.194 39.8841 108.453 40.1483C107.711 40.404 106.855 40.5319 105.883 40.5319ZM107.443 36.7733C108.244 36.7733 108.951 36.6157 109.565 36.3003C110.179 35.9765 110.66 35.5418 111.01 34.9964C111.359 34.4509 111.534 33.833 111.534 33.1427V31.0589C111.363 31.1697 111.129 31.2719 110.831 31.3657C110.541 31.4509 110.213 31.5319 109.846 31.6086C109.48 31.6768 109.113 31.7407 108.747 31.8003C108.38 31.8515 108.048 31.8983 107.75 31.941C107.111 32.0347 106.552 32.1839 106.075 32.3884C105.598 32.593 105.227 32.8699 104.963 33.2194C104.699 33.5603 104.567 33.9864 104.567 34.4978C104.567 35.2393 104.835 35.806 105.372 36.1981C105.917 36.5816 106.608 36.7733 107.443 36.7733ZM122.247 40.1611V20.5248H127.693V40.1611H122.247ZM124.982 17.9935C124.173 17.9935 123.478 17.7251 122.899 17.1881C122.328 16.6427 122.042 15.9907 122.042 15.2322C122.042 14.4822 122.328 13.8387 122.899 13.3018C123.478 12.7563 124.173 12.4836 124.982 12.4836C125.792 12.4836 126.482 12.7563 127.054 13.3018C127.633 13.8387 127.923 14.4822 127.923 15.2322C127.923 15.9907 127.633 16.6427 127.054 17.1881C126.482 17.7251 125.792 17.9935 124.982 17.9935ZM133.135 40.1611V20.5248H138.415V23.9509H138.62C138.978 22.7322 139.578 21.8117 140.422 21.1895C141.266 20.5589 142.238 20.2435 143.337 20.2435C143.61 20.2435 143.904 20.2606 144.219 20.2947C144.534 20.3287 144.811 20.3756 145.05 20.4353V25.2677C144.794 25.191 144.441 25.1228 143.989 25.0631C143.537 25.0035 143.124 24.9736 142.749 24.9736C141.948 24.9736 141.232 25.1483 140.601 25.4978C139.979 25.8387 139.485 26.316 139.118 26.9296C138.76 27.5432 138.581 28.2506 138.581 29.0518V40.1611H133.135ZM164.354 40.1611L156.862 13.9793H162.909L167.243 32.1711H167.46L172.241 13.9793H177.419L182.187 32.2094H182.417L186.751 13.9793H192.798L185.307 40.1611H179.912L174.926 23.0432H174.721L169.748 40.1611H164.354ZM200.229 40.5319C198.976 40.5319 197.859 40.3145 196.879 39.8799C195.899 39.4367 195.124 38.7847 194.552 37.9239C193.99 37.0546 193.709 35.9722 193.709 34.6768C193.709 33.5858 193.909 32.6697 194.31 31.9282C194.71 31.1867 195.256 30.5901 195.946 30.1384C196.636 29.6867 197.42 29.3458 198.298 29.1157C199.185 28.8856 200.114 28.7236 201.085 28.6299C202.227 28.5106 203.148 28.3998 203.847 28.2975C204.545 28.1867 205.052 28.0248 205.368 27.8117C205.683 27.5986 205.841 27.2833 205.841 26.8657V26.789C205.841 25.9793 205.585 25.3529 205.074 24.9097C204.571 24.4665 203.855 24.2449 202.926 24.2449C201.946 24.2449 201.166 24.4623 200.587 24.8969C200.007 25.3231 199.624 25.86 199.436 26.5077L194.399 26.0986C194.655 24.9055 195.158 23.8742 195.908 23.0049C196.658 22.127 197.625 21.4537 198.81 20.985C200.003 20.5077 201.383 20.2691 202.952 20.2691C204.043 20.2691 205.087 20.3969 206.084 20.6526C207.089 20.9083 207.98 21.3046 208.756 21.8415C209.54 22.3785 210.158 23.0688 210.609 23.9126C211.061 24.7478 211.287 25.7492 211.287 26.9168V40.1611H206.122V37.4381H205.969C205.653 38.0518 205.231 38.593 204.703 39.0617C204.175 39.5219 203.54 39.8841 202.798 40.1483C202.057 40.404 201.2 40.5319 200.229 40.5319ZM201.788 36.7733C202.589 36.7733 203.297 36.6157 203.91 36.3003C204.524 35.9765 205.006 35.5418 205.355 34.9964C205.704 34.4509 205.879 33.833 205.879 33.1427V31.0589C205.709 31.1697 205.474 31.2719 205.176 31.3657C204.886 31.4509 204.558 31.5319 204.192 31.6086C203.825 31.6768 203.459 31.7407 203.092 31.8003C202.726 31.8515 202.393 31.8983 202.095 31.941C201.456 32.0347 200.898 32.1839 200.42 32.3884C199.943 32.593 199.572 32.8699 199.308 33.2194C199.044 33.5603 198.912 33.9864 198.912 34.4978C198.912 35.2393 199.18 35.806 199.717 36.1981C200.263 36.5816 200.953 36.7733 201.788 36.7733ZM222.038 13.9793V40.1611H216.592V13.9793H222.038ZM232.927 13.9793V40.1611H227.481V13.9793H232.927ZM247.318 40.5447C245.298 40.5447 243.56 40.1356 242.102 39.3174C240.653 38.4907 239.537 37.3231 238.753 35.8145C237.969 34.2975 237.577 32.5035 237.577 30.4324C237.577 28.4126 237.969 26.6398 238.753 25.1143C239.537 23.5887 240.64 22.3998 242.064 21.5475C243.496 20.6952 245.175 20.2691 247.101 20.2691C248.396 20.2691 249.602 20.4779 250.719 20.8955C251.844 21.3046 252.824 21.9225 253.659 22.7492C254.503 23.5759 255.159 24.6157 255.628 25.8685C256.096 27.1128 256.331 28.5702 256.331 30.2407V31.7364H239.75V28.3614H251.204C251.204 27.5773 251.034 26.8827 250.693 26.2776C250.352 25.6725 249.879 25.1995 249.274 24.8586C248.677 24.5091 247.983 24.3344 247.19 24.3344C246.364 24.3344 245.631 24.5262 244.991 24.9097C244.361 25.2847 243.866 25.7918 243.508 26.431C243.15 27.0617 242.967 27.7648 242.959 28.5404V31.7492C242.959 32.7208 243.138 33.5603 243.496 34.2677C243.862 34.9751 244.378 35.5205 245.042 35.904C245.707 36.2876 246.496 36.4793 247.408 36.4793C248.013 36.4793 248.567 36.3941 249.069 36.2236C249.572 36.0532 250.003 35.7975 250.361 35.4566C250.719 35.1157 250.991 34.6981 251.179 34.2037L256.216 34.5361C255.96 35.7464 255.436 36.8032 254.643 37.7066C253.859 38.6015 252.845 39.3003 251.601 39.8032C250.365 40.2975 248.937 40.5447 247.318 40.5447ZM271.409 20.5248V24.6157H259.584V20.5248H271.409ZM262.269 15.8202H267.715V34.127C267.715 34.6299 267.792 35.0219 267.945 35.3032C268.098 35.5759 268.311 35.7677 268.584 35.8785C268.865 35.9893 269.189 36.0447 269.556 36.0447C269.811 36.0447 270.067 36.0233 270.323 35.9807C270.578 35.9296 270.774 35.8912 270.911 35.8657L271.767 39.9182C271.495 40.0035 271.111 40.1015 270.617 40.2123C270.122 40.3316 269.522 40.404 268.814 40.4296C267.502 40.4807 266.351 40.306 265.363 39.9055C264.382 39.5049 263.62 38.8827 263.074 38.039C262.529 37.1952 262.26 36.1299 262.269 34.843V15.8202Z" fill="white"/>
</svg>
