<svg width="273" height="49" viewBox="0 0 273 49" fill="none" xmlns="http://www.w3.org/2000/svg">
<path d="M6.10352e-05 15.6797C6.10352e-05 13.3477 1.61217 11.3254 3.88551 10.8055L37.1894 3.19016C40.3199 2.47433 43.3039 4.85304 43.3039 8.06436V34.6606C43.3039 36.9926 41.6918 39.015 39.4185 39.5348L6.1146 47.1502C2.98409 47.866 6.10352e-05 45.4873 6.10352e-05 42.276V15.6797Z" fill="#5E50A2"/>
<path d="M6.10352e-05 15.7505C6.10352e-05 12.9891 2.23864 10.7505 5.00006 10.7505H41.068C43.8295 10.7505 46.068 12.9891 46.068 15.7505V42.6049C46.068 45.3663 43.8295 47.6049 41.068 47.6049H5.00006C2.23863 47.6049 6.10352e-05 45.3663 6.10352e-05 42.6049V15.7505Z" fill="#BDB6DD"/>
<path d="M27.6409 29.1771C27.6409 26.6328 29.7034 24.5703 32.2477 24.5703H46.0681V33.7839H32.2477C29.7034 33.7839 27.6409 31.7214 27.6409 29.1771Z" fill="#5E50A2"/>
<circle cx="32.0548" cy="29.1772" r="2.26748" fill="#BDB6DD"/>
<circle cx="23.0341" cy="10.7499" r="9.54822" fill="#5E50A2" stroke="white" stroke-width="1.5"/>
<path d="M23.0339 6.82715V14.673" stroke="#65C6A2" stroke-width="1.5" stroke-linecap="round"/>
<path d="M19.111 10.7505L26.9569 10.7505" stroke="#65C6A2" stroke-width="1.5" stroke-linecap="round"/>
<path d="M71.5804 40V13.8182H77.1159V24.6207H88.3531V13.8182H93.8758V40H88.3531V29.1847H77.1159V40H71.5804ZM105.017 40.3707C103.764 40.3707 102.648 40.1534 101.667 39.7188C100.687 39.2756 99.9118 38.6236 99.3408 37.7628C98.7783 36.8935 98.497 35.8111 98.497 34.5156C98.497 33.4247 98.6973 32.5085 99.0979 31.767C99.4984 31.0256 100.044 30.429 100.734 29.9773C101.425 29.5256 102.209 29.1847 103.087 28.9545C103.973 28.7244 104.902 28.5625 105.873 28.4688C107.015 28.3494 107.936 28.2386 108.635 28.1364C109.334 28.0256 109.841 27.8636 110.156 27.6506C110.471 27.4375 110.629 27.1222 110.629 26.7045V26.6278C110.629 25.8182 110.373 25.1918 109.862 24.7486C109.359 24.3054 108.643 24.0838 107.714 24.0838C106.734 24.0838 105.954 24.3011 105.375 24.7358C104.795 25.1619 104.412 25.6989 104.224 26.3466L99.1874 25.9375C99.443 24.7443 99.9459 23.7131 100.696 22.8438C101.446 21.9659 102.413 21.2926 103.598 20.8239C104.791 20.3466 106.172 20.108 107.74 20.108C108.831 20.108 109.875 20.2358 110.872 20.4915C111.878 20.7472 112.768 21.1435 113.544 21.6804C114.328 22.2173 114.946 22.9077 115.398 23.7514C115.849 24.5866 116.075 25.5881 116.075 26.7557V40H110.91V37.277H110.757C110.442 37.8906 110.02 38.4318 109.491 38.9006C108.963 39.3608 108.328 39.723 107.587 39.9872C106.845 40.2429 105.989 40.3707 105.017 40.3707ZM106.577 36.6122C107.378 36.6122 108.085 36.4545 108.699 36.1392C109.312 35.8153 109.794 35.3807 110.143 34.8352C110.493 34.2898 110.667 33.6719 110.667 32.9815V30.8977C110.497 31.0085 110.263 31.1108 109.964 31.2045C109.675 31.2898 109.346 31.3707 108.98 31.4474C108.614 31.5156 108.247 31.5795 107.881 31.6392C107.514 31.6903 107.182 31.7372 106.883 31.7798C106.244 31.8736 105.686 32.0227 105.209 32.2273C104.731 32.4318 104.361 32.7088 104.096 33.0582C103.832 33.3991 103.7 33.8253 103.7 34.3366C103.7 35.0781 103.969 35.6449 104.506 36.0369C105.051 36.4205 105.741 36.6122 106.577 36.6122ZM121.38 40V20.3636H126.826V40H121.38ZM124.116 17.8324C123.306 17.8324 122.612 17.5639 122.032 17.027C121.461 16.4815 121.176 15.8295 121.176 15.071C121.176 14.321 121.461 13.6776 122.032 13.1406C122.612 12.5952 123.306 12.3224 124.116 12.3224C124.926 12.3224 125.616 12.5952 126.187 13.1406C126.767 13.6776 127.056 14.321 127.056 15.071C127.056 15.8295 126.767 16.4815 126.187 17.027C125.616 17.5639 124.926 17.8324 124.116 17.8324ZM132.269 40V20.3636H137.549V23.7898H137.753C138.111 22.571 138.712 21.6506 139.556 21.0284C140.4 20.3977 141.371 20.0824 142.471 20.0824C142.743 20.0824 143.037 20.0994 143.353 20.1335C143.668 20.1676 143.945 20.2145 144.184 20.2741V25.1065C143.928 25.0298 143.574 24.9616 143.123 24.902C142.671 24.8423 142.258 24.8125 141.883 24.8125C141.081 24.8125 140.365 24.9872 139.735 25.3366C139.113 25.6776 138.618 26.1548 138.252 26.7685C137.894 27.3821 137.715 28.0895 137.715 28.8906V40H132.269ZM163.487 40L155.996 13.8182H162.043L166.376 32.0099H166.594L171.375 13.8182H176.552L181.321 32.0483H181.551L185.885 13.8182H191.932L184.44 40H179.045L174.06 22.8821H173.855L168.882 40H163.487ZM199.362 40.3707C198.109 40.3707 196.993 40.1534 196.013 39.7188C195.033 39.2756 194.257 38.6236 193.686 37.7628C193.124 36.8935 192.842 35.8111 192.842 34.5156C192.842 33.4247 193.043 32.5085 193.443 31.767C193.844 31.0256 194.389 30.429 195.08 29.9773C195.77 29.5256 196.554 29.1847 197.432 28.9545C198.318 28.7244 199.247 28.5625 200.219 28.4688C201.361 28.3494 202.281 28.2386 202.98 28.1364C203.679 28.0256 204.186 27.8636 204.501 27.6506C204.817 27.4375 204.974 27.1222 204.974 26.7045V26.6278C204.974 25.8182 204.719 25.1918 204.207 24.7486C203.705 24.3054 202.989 24.0838 202.06 24.0838C201.08 24.0838 200.3 24.3011 199.72 24.7358C199.141 25.1619 198.757 25.6989 198.57 26.3466L193.533 25.9375C193.788 24.7443 194.291 23.7131 195.041 22.8438C195.791 21.9659 196.759 21.2926 197.943 20.8239C199.136 20.3466 200.517 20.108 202.085 20.108C203.176 20.108 204.22 20.2358 205.217 20.4915C206.223 20.7472 207.114 21.1435 207.889 21.6804C208.673 22.2173 209.291 22.9077 209.743 23.7514C210.195 24.5866 210.42 25.5881 210.42 26.7557V40H205.256V37.277H205.102C204.787 37.8906 204.365 38.4318 203.837 38.9006C203.308 39.3608 202.673 39.723 201.932 39.9872C201.19 40.2429 200.334 40.3707 199.362 40.3707ZM200.922 36.6122C201.723 36.6122 202.43 36.4545 203.044 36.1392C203.658 35.8153 204.139 35.3807 204.489 34.8352C204.838 34.2898 205.013 33.6719 205.013 32.9815V30.8977C204.842 31.0085 204.608 31.1108 204.31 31.2045C204.02 31.2898 203.692 31.3707 203.325 31.4474C202.959 31.5156 202.592 31.5795 202.226 31.6392C201.859 31.6903 201.527 31.7372 201.229 31.7798C200.59 31.8736 200.031 32.0227 199.554 32.2273C199.077 32.4318 198.706 32.7088 198.442 33.0582C198.178 33.3991 198.045 33.8253 198.045 34.3366C198.045 35.0781 198.314 35.6449 198.851 36.0369C199.396 36.4205 200.087 36.6122 200.922 36.6122ZM221.172 13.8182V40H215.726V13.8182H221.172ZM232.06 13.8182V40H226.614V13.8182H232.06ZM246.452 40.3835C244.432 40.3835 242.693 39.9744 241.236 39.1562C239.787 38.3295 238.67 37.1619 237.886 35.6534C237.102 34.1364 236.71 32.3423 236.71 30.2713C236.71 28.2514 237.102 26.4787 237.886 24.9531C238.67 23.4276 239.774 22.2386 241.197 21.3864C242.629 20.5341 244.308 20.108 246.234 20.108C247.53 20.108 248.736 20.3168 249.852 20.7344C250.977 21.1435 251.957 21.7614 252.793 22.5881C253.636 23.4148 254.293 24.4545 254.761 25.7074C255.23 26.9517 255.464 28.4091 255.464 30.0795V31.5753H238.883V28.2003H250.338C250.338 27.4162 250.168 26.7216 249.827 26.1165C249.486 25.5114 249.013 25.0384 248.408 24.6974C247.811 24.348 247.116 24.1733 246.324 24.1733C245.497 24.1733 244.764 24.3651 244.125 24.7486C243.494 25.1236 243 25.6307 242.642 26.2699C242.284 26.9006 242.101 27.6037 242.092 28.3793V31.5881C242.092 32.5597 242.271 33.3991 242.629 34.1065C242.996 34.8139 243.511 35.3594 244.176 35.7429C244.841 36.1264 245.629 36.3182 246.541 36.3182C247.146 36.3182 247.7 36.233 248.203 36.0625C248.706 35.892 249.136 35.6364 249.494 35.2955C249.852 34.9545 250.125 34.5369 250.312 34.0426L255.349 34.375C255.094 35.5852 254.57 36.642 253.777 37.5455C252.993 38.4403 251.979 39.1392 250.734 39.642C249.499 40.1364 248.071 40.3835 246.452 40.3835ZM270.543 20.3636V24.4545H258.718V20.3636H270.543ZM261.402 15.6591H266.848V33.9659C266.848 34.4687 266.925 34.8608 267.079 35.142C267.232 35.4148 267.445 35.6065 267.718 35.7173C267.999 35.8281 268.323 35.8835 268.689 35.8835C268.945 35.8835 269.201 35.8622 269.456 35.8196C269.712 35.7685 269.908 35.7301 270.044 35.7045L270.901 39.7571C270.628 39.8423 270.245 39.9403 269.75 40.0511C269.256 40.1705 268.655 40.2429 267.948 40.2685C266.635 40.3196 265.485 40.1449 264.496 39.7443C263.516 39.3437 262.753 38.7216 262.208 37.8778C261.662 37.0341 261.394 35.9687 261.402 34.6818V15.6591Z" fill="#212121"/>
</svg>
