<svg width="25" height="25" viewBox="0 0 25 25" fill="none" xmlns="http://www.w3.org/2000/svg">
<path d="M20.8665 12.3271V21.7271C20.8665 22.0585 20.5979 22.3271 20.2665 22.3271H5.46645C5.13508 22.3271 4.86646 22.0585 4.86646 21.7271V12.3271" stroke="white" stroke-width="1.5" stroke-linecap="round" stroke-linejoin="round"/>
<path d="M22.2665 7.32715H3.46645C3.13508 7.32715 2.86646 7.59578 2.86646 7.92715V11.7271C2.86646 12.0585 3.13508 12.3271 3.46645 12.3271H22.2665C22.5979 12.3271 22.8665 12.0585 22.8665 11.7271V7.92715C22.8665 7.59578 22.5979 7.32715 22.2665 7.32715Z" stroke="white" stroke-width="1.5" stroke-linecap="round" stroke-linejoin="round"/>
<path d="M12.8665 22.3271V7.32715" stroke="white" stroke-width="1.5" stroke-linecap="round" stroke-linejoin="round"/>
<path d="M12.8665 7.32715H8.36646C7.70342 7.32715 7.06753 7.06376 6.59869 6.59492C6.12985 6.12608 5.86646 5.49019 5.86646 4.82715C5.86646 4.16411 6.12985 3.52822 6.59869 3.05938C7.06753 2.59054 7.70342 2.32715 8.36646 2.32715C11.8665 2.32715 12.8665 7.32715 12.8665 7.32715Z" stroke="white" stroke-width="1.5" stroke-linecap="round" stroke-linejoin="round"/>
<path d="M12.8665 7.32715H17.3665C18.0295 7.32715 18.6654 7.06376 19.1343 6.59492C19.6031 6.12608 19.8665 5.49019 19.8665 4.82715C19.8665 4.16411 19.6031 3.52822 19.1343 3.05938C18.6654 2.59054 18.0295 2.32715 17.3665 2.32715C13.8665 2.32715 12.8665 7.32715 12.8665 7.32715Z" stroke="white" stroke-width="1.5" stroke-linecap="round" stroke-linejoin="round"/>
</svg>
