<svg width="24" height="27" viewBox="0 0 24 27" fill="none" xmlns="http://www.w3.org/2000/svg">
<path d="M20.6779 3.12041C20.0901 2.58635 17.553 0.992164 12.259 0.969072C12.259 0.969072 5.99015 0.557193 2.94704 3.31354C1.25334 4.98583 0.682757 7.47263 0.620199 10.5073C0.55764 13.5421 0.233512 19.3394 5.78442 20.8815C5.78442 20.8815 5.76259 25.1855 5.76007 25.5638C5.76007 25.8283 5.80205 26.0092 5.9532 26.0466C6.06194 26.0731 6.22485 26.0168 6.3634 25.8787C7.25097 24.9873 10.0926 21.5592 10.0926 21.5592C13.9053 21.8082 16.9387 21.0554 17.2649 20.9487C18.0341 20.7014 22.1945 20.3441 22.8986 14.6568C23.6262 8.79433 22.6311 4.79269 20.6779 3.12041Z" fill="white"/>
<path d="M14.9506 10.2578C14.8817 8.86979 14.1766 8.14078 12.8353 8.0708" stroke="#65C6A2" stroke-linecap="round" stroke-linejoin="round"/>
<path d="M16.7663 10.8666C16.7943 9.57347 16.4113 8.49305 15.6172 7.62535C14.8194 6.75457 13.7152 6.27509 12.2982 6.17139" stroke="#65C6A2" stroke-linecap="round" stroke-linejoin="round"/>
<path d="M18.6258 11.5939C18.6087 9.34992 17.9382 7.58261 16.6143 6.29197C15.2903 5.00134 13.6438 4.34916 11.6747 4.33545" stroke="#65C6A2" stroke-linecap="round" stroke-linejoin="round"/>
<path d="M12.9056 14.9986C12.9056 14.9986 13.4032 15.0406 13.671 14.7106L14.1933 14.0535C14.4452 13.7277 15.0532 13.5199 15.6486 13.8516C16.0947 14.106 16.5278 14.3826 16.9463 14.6804C17.3414 14.9709 18.1505 15.646 18.153 15.646C18.5384 15.9714 18.6274 16.4492 18.365 16.9531C18.365 16.956 18.3629 16.961 18.3629 16.9635C18.0739 17.4646 17.707 17.9164 17.2759 18.302C17.2709 18.3046 17.2709 18.3071 17.2663 18.3096C16.8917 18.6225 16.5238 18.8004 16.1625 18.8432C16.1093 18.8526 16.0552 18.8559 16.0012 18.8533C15.8419 18.8549 15.6834 18.8305 15.5318 18.7811L15.5201 18.7639C14.9634 18.6069 14.0338 18.2139 12.4858 17.3599C11.59 16.8715 10.7371 16.3082 9.93642 15.6759C9.53508 15.3591 9.15224 15.0196 8.7898 14.659L8.75117 14.6203L8.71255 14.5817L8.67392 14.5431C8.6609 14.5305 8.64831 14.5175 8.63529 14.5045C8.27467 14.142 7.93515 13.7592 7.6184 13.3578C6.98618 12.5572 6.42283 11.7045 5.93436 10.8089C5.08038 9.26046 4.68739 8.33174 4.53037 7.77417L4.51315 7.76242C4.46393 7.61088 4.43968 7.45234 4.44136 7.29302C4.43842 7.23909 4.44166 7.18499 4.45101 7.1318C4.49608 6.771 4.67424 6.40279 4.98549 6.02716C4.98801 6.02254 4.99053 6.02254 4.99305 6.0175C5.3786 5.58644 5.83044 5.21964 6.33155 4.93091C6.33406 4.93091 6.3391 4.92839 6.34204 4.92839C6.84587 4.66599 7.32366 4.75499 7.64863 5.13832C7.65115 5.14084 8.32502 5.9499 8.6143 6.34499C8.91207 6.76389 9.18869 7.19744 9.44309 7.64402C9.77478 8.23895 9.56695 8.84816 9.24114 9.09924L8.58407 9.62154C8.25238 9.8894 8.29605 10.3869 8.29605 10.3869C8.29605 10.3869 9.26927 14.0703 12.9056 14.9986Z" fill="#65C6A2"/>
</svg>
