<svg width="23" height="24" viewBox="0 0 23 24" fill="none" xmlns="http://www.w3.org/2000/svg">
<path fill-rule="evenodd" clip-rule="evenodd" d="M16.5281 14.0027C16.2721 13.8534 14.946 13.1277 14.7002 13.0255C14.4545 12.9234 14.2727 12.8684 14.0807 13.1408C13.8887 13.4133 13.3434 14.021 13.1795 14.1887C13.0157 14.3564 12.8544 14.3852 12.5856 14.2358C11.7931 13.8804 11.0665 13.3876 10.4377 12.7793C9.86295 12.1926 9.3756 11.5227 8.99129 10.7909C8.84281 10.5054 8.99129 10.3613 9.1321 10.2277C9.2729 10.0941 9.4137 9.91071 9.5673 9.76663C9.68379 9.63 9.78115 9.47747 9.85659 9.31342C9.8956 9.23794 9.91599 9.15386 9.91599 9.06848C9.91599 8.9831 9.8956 8.89901 9.85659 8.82353C9.79259 8.68207 9.2985 7.28839 9.08857 6.72777C8.87865 6.16715 8.64568 6.22479 8.49208 6.21955C8.33848 6.21431 8.15159 6.18287 7.98007 6.17501C7.84188 6.17486 7.70509 6.20333 7.57794 6.2587C7.45079 6.31408 7.33591 6.39522 7.24021 6.49724C6.9238 6.78544 6.66939 7.13779 6.4931 7.53195C6.31682 7.9261 6.22252 8.35344 6.21619 8.78686C6.16499 10.157 7.09173 11.5218 7.22229 11.7131C7.35285 11.9043 8.99385 14.8777 11.7203 16.1011C14.4468 17.3245 14.4647 16.9499 14.9665 16.9237C15.4682 16.8975 16.5819 16.3159 16.8379 15.6688C17.0939 15.0218 17.1092 14.4664 17.0452 14.359C16.9812 14.2516 16.7892 14.1625 16.5332 14.0132L16.5281 14.0027ZM11.5232 0.597656C9.63216 0.59775 7.7751 1.11185 6.14195 2.08738C4.5088 3.06291 3.15818 4.46484 2.22825 6.14978C1.29833 7.83473 0.822462 9.7422 0.849338 11.6771C0.876214 13.612 1.40487 15.5048 2.38122 17.1621L0.453491 23.0223L6.36467 21.0864C7.79069 21.8916 9.37786 22.3523 11.0047 22.4331C12.6315 22.514 14.2548 22.2129 15.7504 21.5528C17.2459 20.8927 18.574 19.8912 19.6331 18.625C20.6921 17.3587 21.454 15.8613 21.8603 14.2473C22.2667 12.6334 22.3068 10.9456 21.9775 9.31337C21.6482 7.68111 20.9583 6.14758 19.9607 4.83019C18.963 3.5128 17.684 2.44648 16.2215 1.71286C14.759 0.979236 13.1519 0.597768 11.5232 0.597656V0.597656Z" fill="white"/>
</svg>
