<svg width="34" height="25" viewBox="0 0 34 25" fill="none" xmlns="http://www.w3.org/2000/svg">
<path d="M13.8665 22.8274V1.82739M19.8665 1.82739H30.9665C31.4636 1.82739 31.8665 2.23034 31.8665 2.72739V21.9274C31.8665 22.4245 31.4636 22.8274 30.9665 22.8274H19.8665V1.82739ZM19.8665 1.82739V22.8274V1.82739ZM19.8665 1.82739H13.8665H19.8665ZM19.8665 22.8274H13.8665H19.8665ZM13.8665 22.8274H2.76645C2.2694 22.8274 1.86646 22.4245 1.86646 21.9274V2.72739C1.86646 2.23034 2.2694 1.82739 2.76645 1.82739H13.8665V22.8274Z" stroke="white" stroke-width="2.5" stroke-linecap="round" stroke-linejoin="round"/>
<path d="M9.36646 9.10056C9.36646 8.47943 8.74667 8.05295 8.24237 8.41554C7.1063 9.23237 6.36646 10.5657 6.36646 12.0717C6.36646 13.5777 7.1063 14.911 8.24237 15.7278C8.74667 16.0903 9.36646 15.664 9.36646 15.0429C9.36646 13.1619 9.36646 11.3928 9.36646 9.10056Z" fill="white"/>
<path d="M24.3665 9.10056C24.3665 8.47943 24.9863 8.05295 25.4906 8.41554C26.6267 9.23237 27.3665 10.5657 27.3665 12.0717C27.3665 13.5777 26.6267 14.911 25.4906 15.7278C24.9863 16.0903 24.3665 15.664 24.3665 15.0429C24.3665 13.1619 24.3665 11.3928 24.3665 9.10056Z" fill="white"/>
</svg>
