<svg width="34" height="32" viewBox="0 0 34 32" fill="none" xmlns="http://www.w3.org/2000/svg">
<path d="M17 1.32812V7.32812" stroke="white" stroke-width="2.5" stroke-linecap="round" stroke-linejoin="round"/>
<path d="M5 7.32812L8.75 11.0781" stroke="white" stroke-width="2.5" stroke-linecap="round" stroke-linejoin="round"/>
<path d="M25.25 11.0781L29 7.32812" stroke="white" stroke-width="2.5" stroke-linecap="round" stroke-linejoin="round"/>
<path d="M3.5 20.8281H8" stroke="white" stroke-width="2.5" stroke-linecap="round" stroke-linejoin="round"/>
<path d="M17 20.8281L18.5 11.8281" stroke="white" stroke-width="2.5" stroke-linecap="round" stroke-linejoin="round"/>
<path d="M26 20.8281H30.5" stroke="white" stroke-width="2.5" stroke-linecap="round" stroke-linejoin="round"/>
<path d="M11.75 25.3296H5C3.11627 22.8224 2 19.7055 2 16.3281C2 8.04385 8.71572 1.32812 17 1.32812C25.2842 1.32812 32 8.04385 32 16.3281C32 19.7055 30.8837 22.8224 29 25.3296L22.25 25.3281" stroke="white" stroke-width="2.5" stroke-linecap="round" stroke-linejoin="round"/>
<path d="M17 29.8281C19.4854 29.8281 21.5 27.8135 21.5 25.3281C21.5 22.8428 19.4854 20.8281 17 20.8281C14.5146 20.8281 12.5 22.8428 12.5 25.3281C12.5 27.8135 14.5146 29.8281 17 29.8281Z" stroke="white" stroke-width="2.5" stroke-linecap="round" stroke-linejoin="round"/>
</svg>
