<svg width="34" height="25" viewBox="0 0 34 25" fill="none" xmlns="http://www.w3.org/2000/svg">
<path d="M9.5 16.8279C10.3284 16.8279 11 16.1563 11 15.3279C11 14.4994 10.3284 13.8279 9.5 13.8279C8.67158 13.8279 8 14.4994 8 15.3279C8 16.1563 8.67158 16.8279 9.5 16.8279Z" fill="white" stroke="white" stroke-width="2.5" stroke-linecap="round" stroke-linejoin="round"/>
<path d="M2 7.82788H32M2 7.82788V2.72788C2 2.23083 2.40294 1.82788 2.9 1.82788H31.1C31.5971 1.82788 32 2.23083 32 2.72788V7.82788H2ZM2 7.82788V21.9279C2 22.425 2.40294 22.8279 2.9 22.8279H31.1C31.5971 22.8279 32 22.425 32 21.9279V7.82788H2Z" stroke="white" stroke-width="2.5" stroke-linecap="round" stroke-linejoin="round"/>
</svg>
