<svg width="32" height="30" viewBox="0 0 32 30" fill="none" xmlns="http://www.w3.org/2000/svg">
<path d="M20.5 9.57861C19.3289 9.27503 17.7016 8.82861 16.397 8.82861C9.96454 8.82861 4.75 12.83 4.75 17.7661C4.75 20.6026 6.47191 23.1304 9.15736 24.7678L8.42977 27.1675C8.25452 27.7454 8.68706 28.3286 9.29104 28.3286H11.9372C12.132 28.3286 12.3216 28.2655 12.4774 28.1485L14.5693 26.5786H18.2246L20.3165 28.1485C20.4724 28.2655 20.662 28.3286 20.8568 28.3286H23.503C24.1069 28.3286 24.5395 27.7454 24.3641 27.1675L23.6367 24.7678C25.2366 23.7923 26.4944 22.5007 27.25 21.0161" stroke="white" stroke-width="2.5" stroke-linecap="round" stroke-linejoin="round"/>
<path d="M20.5 9.57861L27.25 7.32861L27.124 12.7711L30.25 14.0786V19.3286L27.3612 20.8286" stroke="white" stroke-width="2.5" stroke-linecap="round" stroke-linejoin="round"/>
<path d="M22 16.3286C21.5859 16.3286 21.25 15.9928 21.25 15.5786C21.25 15.1645 21.5859 14.8286 22 14.8286C22.4141 14.8286 22.75 15.1645 22.75 15.5786C22.75 15.9928 22.4141 16.3286 22 16.3286Z" fill="white" stroke="white" stroke-width="2.5" stroke-linecap="round" stroke-linejoin="round"/>
<path d="M1.75 11.8286C1.75 11.8286 1.75 15.4286 4.75 16.3286" stroke="white" stroke-width="2.5" stroke-linecap="round" stroke-linejoin="round"/>
<path d="M17.9512 8.45805C18.1447 7.90058 18.25 7.30065 18.25 6.67569C18.25 3.72258 15.8995 1.32861 13 1.32861C10.1005 1.32861 7.75 3.72258 7.75 6.67569C7.75 8.08818 8.28773 9.37274 9.16606 10.3286" stroke="white" stroke-width="2.5" stroke-linejoin="round"/>
</svg>
