<svg width="30" height="33" viewBox="0 0 30 33" fill="none" xmlns="http://www.w3.org/2000/svg">
<path d="M9.35441 9.07861L28.5002 25.5786M9.35441 9.07861C10.067 8.28247 10.5002 7.23114 10.5002 6.07861C10.5002 3.59334 8.48552 1.57861 6.00024 1.57861C3.51497 1.57861 1.50024 3.59334 1.50024 6.07861C1.50024 8.56389 3.51497 10.5786 6.00024 10.5786C7.33299 10.5786 8.53043 9.99924 9.35441 9.07861Z" stroke="white" stroke-width="2.5" stroke-linecap="round" stroke-linejoin="round"/>
<path d="M9.35441 24.0786L28.5002 7.57861M9.35441 24.0786C10.067 24.8748 10.5002 25.926 10.5002 27.0786C10.5002 29.564 8.48552 31.5786 6.00024 31.5786C3.51497 31.5786 1.50024 29.564 1.50024 27.0786C1.50024 24.5933 3.51497 22.5786 6.00024 22.5786C7.33299 22.5786 8.53043 23.1581 9.35441 24.0786Z" stroke="white" stroke-width="2.5" stroke-linecap="round" stroke-linejoin="round"/>
</svg>
