<svg width="34" height="29" viewBox="0 0 34 29" fill="none" xmlns="http://www.w3.org/2000/svg">
<path d="M5.95242 18.4505L7.51094 15.146C7.71101 14.7218 8.28899 14.7218 8.48906 15.146L10.0476 18.4505L13.5329 18.9838C13.9801 19.0522 14.1582 19.6274 13.8345 19.9576L11.313 22.528L11.9081 26.1593C11.9846 26.6257 11.5168 26.9812 11.1167 26.761L8 25.0456L4.88328 26.761C4.48316 26.9812 4.01544 26.6257 4.09187 26.1593L4.68695 22.528L2.16545 19.9576C1.8417 19.6274 2.01993 19.0522 2.46711 18.9838L5.95242 18.4505Z" stroke="white" stroke-width="2.5" stroke-linecap="round" stroke-linejoin="round"/>
<path d="M23.9523 18.4505L25.511 15.146C25.7109 14.7218 26.289 14.7218 26.489 15.146L28.0476 18.4505L31.5329 18.9838C31.98 19.0522 32.1582 19.6274 31.8345 19.9576L29.313 22.528L29.9081 26.1593C29.9846 26.6257 29.5169 26.9812 29.1167 26.761L26 25.0456L22.8833 26.761C22.4831 26.9812 22.0154 26.6257 22.0919 26.1593L22.6869 22.528L20.1654 19.9576C19.8417 19.6274 20.0199 19.0522 20.4671 18.9838L23.9523 18.4505Z" stroke="white" stroke-width="2.5" stroke-linecap="round" stroke-linejoin="round"/>
<path d="M14.9523 4.9506L16.511 1.64604C16.7109 1.22183 17.289 1.22183 17.489 1.64604L19.0476 4.9506L22.5329 5.48378C22.98 5.55218 23.1582 6.12749 22.8345 6.45752L20.313 9.02793L20.9081 12.6593C20.9846 13.1257 20.5169 13.4812 20.1167 13.261L17 11.5455L13.8833 13.261C13.4832 13.4812 13.0154 13.1257 13.0919 12.6593L13.6869 9.02793L11.1654 6.45752C10.8417 6.12749 11.0199 5.55218 11.4671 5.48378L14.9523 4.9506Z" stroke="white" stroke-width="2.5" stroke-linecap="round" stroke-linejoin="round"/>
</svg>
