<svg width="33" height="30" viewBox="0 0 33 30" fill="none" xmlns="http://www.w3.org/2000/svg">
<path d="M28.9778 1.75073H22.9902L23.7402 9.25073C23.7402 9.25073 25.2402 10.7507 27.4902 10.7507C29.1057 10.7507 30.2057 9.97741 30.6977 9.54128C30.8937 9.36746 30.9654 9.1021 30.9224 8.84365L29.8655 2.50277C29.7932 2.06881 29.4177 1.75073 28.9778 1.75073Z" stroke="white" stroke-width="2.5"/>
<path d="M22.9902 1.75073L23.7402 9.25073C23.7402 9.25073 22.2402 10.7507 19.9902 10.7507C17.7402 10.7507 16.2402 9.25073 16.2402 9.25073V1.75073H22.9902Z" stroke="white" stroke-width="2.5"/>
<path d="M16.2403 1.75073V9.25073C16.2403 9.25073 14.7402 10.7507 12.4902 10.7507C10.2402 10.7507 8.74023 9.25073 8.74023 9.25073L9.49023 1.75073H16.2403Z" stroke="white" stroke-width="2.5"/>
<path d="M9.49036 1.75073H3.50277C3.06282 1.75073 2.68735 2.06881 2.61502 2.50277L1.5582 8.84366C1.51513 9.1021 1.58688 9.36746 1.78293 9.54128C2.27481 9.97741 3.37479 10.7507 4.99033 10.7507C7.24033 10.7507 8.74036 9.25073 8.74036 9.25073L9.49036 1.75073Z" stroke="white" stroke-width="2.5"/>
<path d="M2.75024 10.7507V25.7507C2.75024 27.4076 4.09339 28.7507 5.75024 28.7507H26.7502C28.4071 28.7507 29.7502 27.4076 29.7502 25.7507V10.7507" stroke="white" stroke-width="2.5"/>
<path d="M20.5 28.7507V19.7507C20.5 18.0938 19.1569 16.7507 17.5 16.7507H14.5C12.8431 16.7507 11.5 18.0938 11.5 19.7507V28.7507" stroke="white" stroke-width="2.5" stroke-miterlimit="16"/>
</svg>
